<svg width="24" height="24" viewBox="0 0 24 24" fill="none" xmlns="http://www.w3.org/2000/svg">
<path d="M7.17678 14.8237L7.10355 14.7505H7H3.25V9.25047H7H7.10355L7.17678 9.17725L11.75 4.60402V19.3969L7.17678 14.8237ZM19.25 12.0005C19.25 8.78255 17.151 6.0528 14.25 5.10657V3.54958C17.9854 4.543 20.75 7.94983 20.75 12.0005C20.75 16.0511 17.9854 19.4579 14.25 20.4514V18.8844C17.1506 17.9387 19.25 15.2188 19.25 12.0005ZM14.25 8.39463C15.4642 9.14642 16.25 10.4744 16.25 12.0005C16.25 13.5195 15.4625 14.8539 14.25 15.5833V8.39463Z" fill="#FFDB67" stroke="#FFDB67" stroke-width="0.5"/>
</svg>
