<svg width="44" height="44" viewBox="0 0 44 44" fill="none" xmlns="http://www.w3.org/2000/svg">
<path d="M33.7515 6.25159L29.3332 8.24992L33.7515 10.2483L35.7498 14.6666L37.7665 10.2483L42.1665 8.24992L37.7665 6.25159L35.7498 1.83325M21.9998 3.66659C11.9165 3.66659 3.6665 11.9166 3.6665 21.9999C3.6665 32.0833 11.9165 40.3333 21.9998 40.3333C32.0832 40.3333 40.3332 32.0833 40.3332 21.9999C40.3332 19.3049 39.7282 16.7383 38.6832 14.4283L36.4098 19.4149C36.5565 20.2583 36.6665 21.0833 36.6665 21.9999C36.6665 30.1216 30.1215 36.6666 21.9998 36.6666C13.8782 36.6666 7.33317 30.1216 7.33317 21.9999C7.33317 21.9266 7.33317 21.8349 7.33317 21.7616C9.69378 20.8773 11.8467 19.5157 13.6573 17.7618C15.468 16.0079 16.8975 13.8995 17.8565 11.5683C19.576 13.6823 21.7452 15.3865 24.2062 16.5567C26.6672 17.7269 29.3581 18.3338 32.0832 18.3333C32.8987 18.3325 33.7133 18.2774 34.5215 18.1683L31.8082 12.1916L23.0998 8.24992L29.5715 5.31659C27.2615 4.27159 24.6948 3.66659 21.9998 3.66659ZM16.4998 21.5416C15.892 21.5416 15.3092 21.783 14.8794 22.2128C14.4496 22.6426 14.2082 23.2255 14.2082 23.8333C14.2082 24.441 14.4496 25.0239 14.8794 25.4537C15.3092 25.8835 15.892 26.1249 16.4998 26.1249C16.8008 26.1249 17.0988 26.0656 17.3768 25.9505C17.6549 25.8353 17.9075 25.6665 18.1203 25.4537C18.3331 25.2409 18.5019 24.9883 18.6171 24.7102C18.7322 24.4322 18.7915 24.1342 18.7915 23.8333C18.7915 23.5323 18.7322 23.2343 18.6171 22.9563C18.5019 22.6782 18.3331 22.4256 18.1203 22.2128C17.9075 22 17.6549 21.8312 17.3768 21.716C17.0988 21.6009 16.8008 21.5416 16.4998 21.5416ZM27.4998 21.5416C26.892 21.5416 26.3092 21.783 25.8794 22.2128C25.4496 22.6426 25.2082 23.2255 25.2082 23.8333C25.2082 24.441 25.4496 25.0239 25.8794 25.4537C26.3092 25.8835 26.892 26.1249 27.4998 26.1249C28.1076 26.1249 28.6905 25.8835 29.1203 25.4537C29.5501 25.0239 29.7915 24.441 29.7915 23.8333C29.7915 23.2255 29.5501 22.6426 29.1203 22.2128C28.6905 21.783 28.1076 21.5416 27.4998 21.5416Z" fill="#9C9DA2"/>
</svg>
